<svg xmlns="http://www.w3.org/2000/svg">
  <symbol id="location" viewBox="-52 0 512 512">
    <path d="m348.878906 60.726562c-37.773437-38.320312-88.179687-59.878906-141.9375-60.7031245-1.054687-.015625-2.105468-.0234375-3.15625-.0234375-53.457031 0-104.015625 20.855469-142.679687 58.933594-39.40625 38.804687-61.105469 90.238281-61.105469 144.824218 0 48.035157 17.03125 94.648438 47.972656 131.320313.113282.152344.234375.300781.359375.445313l.488281.554687c.917969 1.074219 1.851563 2.140625 2.742188 3.140625l146 167.0625c3.1875 3.648438 7.753906 5.71875 12.582031 5.71875.125 0 .25-.003906.375-.003906 4.964844-.109375 9.589844-2.398438 12.691407-6.277344l98.960937-123.859375c2.585937-3.234375 2.058594-7.957031-1.179687-10.542969-3.238282-2.585937-7.957032-2.058594-10.542969 1.175782l-98.960938 123.859374c-.414062.515626-.9375.636719-1.300781.644532-.359375-.011719-.894531-.089844-1.328125-.585938l-146.046875-167.121094c-.871094-.976562-1.734375-1.960937-2.640625-3.019531l-.242187-.277343c-.066407-.089844-.136719-.175782-.207032-.257813-28.835937-34.015625-44.71875-77.335937-44.71875-121.976563 0-50.535156 20.113282-98.171874 56.628906-134.136718 36.539063-35.980469 84.492188-55.351563 135.078126-54.59375 49.792968.761718 96.488281 20.734375 131.480468 56.234375 35.027344 35.539062 54.320313 82.59375 54.320313 132.496093 0 44.640626-15.882813 87.960938-44.71875 121.976563-.144531.175781-.285157.355469-.417969.539063l-17.242188 21.585937c-2.585937 3.234375-2.0625 7.957031 1.175782 10.542969 3.238281 2.585937 7.960937 2.058594 10.546875-1.179688l17.542969-21.953125c.050781-.066406.101562-.132812.152343-.199219 30.933594-36.667968 47.964844-83.285156 47.964844-131.3125 0-53.871093-20.824219-104.667968-58.636719-143.03125zm0 0"></path><path d="m137.988281 151.671875c-3.558593-2.121094-8.164062-.957031-10.289062 2.601563-8.140625 13.648437-12.441407 29.304687-12.441407 45.273437 0 48.800781 39.703126 88.503906 88.5 88.503906 48.800782 0 88.503907-39.703125 88.503907-88.503906s-39.703125-88.5-88.503907-88.5c-16.734374 0-33.035156 4.695313-47.128906 13.582031-2.40625 1.515625-4.765625 3.167969-7.015625 4.910156-3.273437 2.535157-3.875 7.25-1.335937 10.523438 2.539062 3.277344 7.25 3.871094 10.523437 1.339844 1.871094-1.449219 3.828125-2.820313 5.828125-4.082032 11.695313-7.371093 25.226563-11.269531 39.128906-11.269531 40.527344 0 73.496094 32.96875 73.496094 73.496094s-32.96875 73.496094-73.496094 73.496094c-40.527343 0-73.496093-32.96875-73.496093-73.496094 0-13.265625 3.570312-26.261719 10.324219-37.585937 2.125-3.558594.960937-8.164063-2.597657-10.289063zm0 0"></path>
  </symbol>
  <symbol id="call" viewBox="0 0 512.076 512.076">
    <g transform="translate(-1 -1)"><g><g><path d="M499.639,396.039l-103.646-69.12c-13.153-8.701-30.784-5.838-40.508,6.579l-30.191,38.818 c-3.88,5.116-10.933,6.6-16.546,3.482l-5.743-3.166c-19.038-10.377-42.726-23.296-90.453-71.04s-60.672-71.45-71.049-90.453 l-3.149-5.743c-3.161-5.612-1.705-12.695,3.413-16.606l38.792-30.182c12.412-9.725,15.279-27.351,6.588-40.508l-69.12-103.646 C109.12,1.056,91.25-2.966,77.461,5.323L34.12,31.358C20.502,39.364,10.511,52.33,6.242,67.539 c-15.607,56.866-3.866,155.008,140.706,299.597c115.004,114.995,200.619,145.92,259.465,145.92 c13.543,0.058,27.033-1.704,40.107-5.239c15.212-4.264,28.18-14.256,36.181-27.878l26.061-43.315 C517.063,422.832,513.043,404.951,499.639,396.039z M494.058,427.868l-26.001,43.341c-5.745,9.832-15.072,17.061-26.027,20.173 c-52.497,14.413-144.213,2.475-283.008-136.32S8.29,124.559,22.703,72.054c3.116-10.968,10.354-20.307,20.198-26.061 l43.341-26.001c5.983-3.6,13.739-1.855,17.604,3.959l37.547,56.371l31.514,47.266c3.774,5.707,2.534,13.356-2.85,17.579 l-38.801,30.182c-11.808,9.029-15.18,25.366-7.91,38.332l3.081,5.598c10.906,20.002,24.465,44.885,73.967,94.379 c49.502,49.493,74.377,63.053,94.37,73.958l5.606,3.089c12.965,7.269,29.303,3.898,38.332-7.91l30.182-38.801 c4.224-5.381,11.87-6.62,17.579-2.85l103.637,69.12C495.918,414.126,497.663,421.886,494.058,427.868z"></path><path d="M291.161,86.39c80.081,0.089,144.977,64.986,145.067,145.067c0,4.713,3.82,8.533,8.533,8.533s8.533-3.82,8.533-8.533 c-0.099-89.503-72.63-162.035-162.133-162.133c-4.713,0-8.533,3.82-8.533,8.533S286.448,86.39,291.161,86.39z"></path><path d="M291.161,137.59c51.816,0.061,93.806,42.051,93.867,93.867c0,4.713,3.821,8.533,8.533,8.533 c4.713,0,8.533-3.82,8.533-8.533c-0.071-61.238-49.696-110.863-110.933-110.933c-4.713,0-8.533,3.82-8.533,8.533 S286.448,137.59,291.161,137.59z"></path><path d="M291.161,188.79c23.552,0.028,42.638,19.114,42.667,42.667c0,4.713,3.821,8.533,8.533,8.533s8.533-3.82,8.533-8.533 c-0.038-32.974-26.759-59.696-59.733-59.733c-4.713,0-8.533,3.82-8.533,8.533S286.448,188.79,291.161,188.79z"></path></g></g></g>
  </symbol>
  <symbol id="facebook" viewBox="0 0 512 512">
    <path d="m512 256c0-141.4-114.6-256-256-256s-256 114.6-256 256 114.6 256 256 256c1.5 0 3 0 4.5-.1v-199.2h-55v-64.1h55v-47.2c0-54.7 33.4-84.5 82.2-84.5 23.4 0 43.5 1.7 49.3 2.5v57.2h-33.6c-26.5 0-31.7 12.6-31.7 31.1v40.8h63.5l-8.3 64.1h-55.2v189.5c107-30.7 185.3-129.2 185.3-246.1z"></path>
  </symbol>
  <symbol id="inst" viewBox="0 0 169.063 169.063">
    <g><path d="M122.406,0H46.654C20.929,0,0,20.93,0,46.655v75.752c0,25.726,20.929,46.655,46.654,46.655h75.752 c25.727,0,46.656-20.93,46.656-46.655V46.655C169.063,20.93,148.133,0,122.406,0z M154.063,122.407 c0,17.455-14.201,31.655-31.656,31.655H46.654C29.2,154.063,15,139.862,15,122.407V46.655C15,29.201,29.2,15,46.654,15h75.752 c17.455,0,31.656,14.201,31.656,31.655V122.407z"></path><path d="M84.531,40.97c-24.021,0-43.563,19.542-43.563,43.563c0,24.02,19.542,43.561,43.563,43.561s43.563-19.541,43.563-43.561 C128.094,60.512,108.552,40.97,84.531,40.97z M84.531,113.093c-15.749,0-28.563-12.812-28.563-28.561 c0-15.75,12.813-28.563,28.563-28.563s28.563,12.813,28.563,28.563C113.094,100.281,100.28,113.093,84.531,113.093z"></path><path d="M129.921,28.251c-2.89,0-5.729,1.17-7.77,3.22c-2.051,2.04-3.23,4.88-3.23,7.78c0,2.891,1.18,5.73,3.23,7.78 c2.04,2.04,4.88,3.22,7.77,3.22c2.9,0,5.73-1.18,7.78-3.22c2.05-2.05,3.22-4.89,3.22-7.78c0-2.9-1.17-5.74-3.22-7.78 C135.661,29.421,132.821,28.251,129.921,28.251z"></path></g>
  </symbol>
  <symbol id="twitter" viewBox="0 0 310 310">
    <g id="XMLID_826_"><path id="XMLID_827_" d="M302.973,57.388c-4.87,2.16-9.877,3.983-14.993,5.463c6.057-6.85,10.675-14.91,13.494-23.73 c0.632-1.977-0.023-4.141-1.648-5.434c-1.623-1.294-3.878-1.449-5.665-0.39c-10.865,6.444-22.587,11.075-34.878,13.783 c-12.381-12.098-29.197-18.983-46.581-18.983c-36.695,0-66.549,29.853-66.549,66.547c0,2.89,0.183,5.764,0.545,8.598 C101.163,99.244,58.83,76.863,29.76,41.204c-1.036-1.271-2.632-1.956-4.266-1.825c-1.635,0.128-3.104,1.05-3.93,2.467 c-5.896,10.117-9.013,21.688-9.013,33.461c0,16.035,5.725,31.249,15.838,43.137c-3.075-1.065-6.059-2.396-8.907-3.977 c-1.529-0.851-3.395-0.838-4.914,0.033c-1.52,0.871-2.473,2.473-2.513,4.224c-0.007,0.295-0.007,0.59-0.007,0.889 c0,23.935,12.882,45.484,32.577,57.229c-1.692-0.169-3.383-0.414-5.063-0.735c-1.732-0.331-3.513,0.276-4.681,1.597 c-1.17,1.32-1.557,3.16-1.018,4.84c7.29,22.76,26.059,39.501,48.749,44.605c-18.819,11.787-40.34,17.961-62.932,17.961 c-4.714,0-9.455-0.277-14.095-0.826c-2.305-0.274-4.509,1.087-5.294,3.279c-0.785,2.193,0.047,4.638,2.008,5.895 c29.023,18.609,62.582,28.445,97.047,28.445c67.754,0,110.139-31.95,133.764-58.753c29.46-33.421,46.356-77.658,46.356-121.367 c0-1.826-0.028-3.67-0.084-5.508c11.623-8.757,21.63-19.355,29.773-31.536c1.237-1.85,1.103-4.295-0.33-5.998 C307.394,57.037,305.009,56.486,302.973,57.388z"/></g>
  </symbol>
  <symbol id="search" viewBox="0 0 512 512">
    <g><g><path d="m304.7,10.9c-108.5,0-196.4,87.9-196.4,196.4 0,46.9 16.4,89.9 43.8,123.7l-135,135c-8,8-8,20.9 0,28.9 8,8 20.9,8 28.9,0l135-135c33.8,27.4 76.8,43.8 123.7,43.8 108.5,0 196.4-87.9 196.4-196.4s-88-196.4-196.4-196.4zm0,352c-85.9,0-155.6-69.7-155.6-155.6 0-85.9 69.7-155.6 155.6-155.6 85.9,0 155.6,69.7 155.6,155.6 5.68434e-14,85.9-69.7,155.6-155.6,155.6z"/></g></g>
  </symbol>
  <symbol id="arrow" viewBox="0 0 512.008 512.008">
    <g><g><path d="M384.001,53.333V10.667c0-4.354-2.646-8.281-6.688-9.896C376.022,0.25,374.668,0,373.335,0 c-2.854,0-5.646,1.146-7.708,3.292L130.96,248.625c-3.937,4.125-3.937,10.625,0,14.75l234.667,245.333 c3.021,3.146,7.646,4.167,11.688,2.521c4.042-1.615,6.688-5.542,6.688-9.896v-42.667c0-2.729-1.042-5.354-2.917-7.333L196.022,256 L381.085,60.667C382.96,58.688,384.001,56.063,384.001,53.333z"/></g></g>
  </symbol>
  <symbol id="medal" viewBox="0 0 512 512">
    <g id="XMLID_2497_"><g id="XMLID_47_"><path id="XMLID_2099_" d="m334.583 191.289 81.212-131.021c2.446-3.946 1.854-9.057-1.429-12.34l-45.004-45c-1.877-1.876-4.409-2.917-7.032-2.926v-.002h-.048c-.007 0-.014 0-.021 0h-61.261c-5.523 0-10 4.477-10 10s4.477 10 10 10h43.359l-30.783 49.83h-115.19l-30.784-49.83h43.398c5.523 0 10-4.477 10-10s-4.477-10-10-10h-61.307s-.001 0-.002 0h-.021v.001c-2.635 0-5.185 1.042-7.071 2.928l-45.004 45c-3.283 3.283-3.875 8.394-1.429 12.34l81.222 131.036c-54.269 28.425-91.388 85.302-91.388 150.695 0 93.738 76.262 170 170 170s170-76.262 170-170c0-65.404-37.132-122.291-91.417-150.711zm60.037-134.821-78.439 126.546c-13.522-5.136-27.858-8.604-42.763-10.128l90.738-146.88zm-93.4 33.362-45.239 73.23-45.24-73.23zm-183.879-33.362 30.463-30.461 90.741 146.884c-14.904 1.527-29.238 4.997-42.758 10.135zm138.659 435.532c-82.71 0-150-67.29-150-150s67.29-150 150-150 150 67.29 150 150-67.29 150-150 150z"/><path id="XMLID_2118_" d="m304.114 309.33-22.096-3.205-9.886-20.019c-3.056-6.188-9.239-10.03-16.139-10.03-.001 0-.003 0-.005 0-6.901.002-13.085 3.848-16.139 10.038l-9.875 20.024-22.094 3.217c-6.83.994-12.396 5.689-14.527 12.254s-.384 13.635 4.56 18.451l15.992 15.581-3.769 22.006c-1.165 6.803 1.581 13.548 7.166 17.604 3.155 2.291 6.844 3.454 10.559 3.454 2.862 0 5.739-.691 8.397-2.089l19.759-10.395 19.765 10.384c6.11 3.21 13.373 2.684 18.956-1.375 5.583-4.058 8.325-10.805 7.156-17.607l-3.78-22.005 15.984-15.589c4.941-4.819 6.684-11.89 4.55-18.453-2.135-6.563-7.704-11.256-14.534-12.246zm-23.727 35.641c-2.356 2.298-3.431 5.608-2.874 8.852l3.984 23.192-20.832-10.945c-2.914-1.531-6.394-1.53-9.307.002l-20.826 10.956 3.972-23.194c.556-3.244-.521-6.554-2.878-8.851l-16.855-16.421 23.287-3.391c3.257-.474 6.072-2.521 7.528-5.472l10.408-21.104 10.42 21.099c1.458 2.951 4.274 4.996 7.531 5.468l23.289 3.378z"/><path id="XMLID_2262_" d="m256 216c-69.477 0-126 56.523-126 126s56.523 126 126 126 126-56.523 126-126-56.523-126-126-126zm0 232c-58.449 0-106-47.551-106-106s47.551-106 106-106 106 47.551 106 106-47.551 106-106 106z"/><path id="XMLID_2393_" d="m256 20c2.63 0 5.21-1.07 7.07-2.93s2.93-4.44 2.93-7.07-1.07-5.21-2.93-7.07-4.44-2.93-7.07-2.93-5.21 1.07-7.07 2.93-2.93 4.44-2.93 7.07 1.07 5.21 2.93 7.07 4.44 2.93 7.07 2.93z"/></g></g>
  </symbol>
  <symbol id="plant" viewBox="0 0 48 48">
    <g id="Sprout"><path d="m43 34a5.83 5.83 0 0 0 -2 0 6 6 0 0 0 -11.61-.95 5.85 5.85 0 0 0 -2.32 0v-14.91a13.35 13.35 0 0 0 8-3.85 13.68 13.68 0 0 0 3.43-13.12 1 1 0 0 0 -.71-.71 13.55 13.55 0 0 0 -13.07 3.54 10.65 10.65 0 0 0 -.83.95c-.27-.33-.55-.65-.85-.95a13.55 13.55 0 0 0 -13.04-3.54 1 1 0 0 0 -.71.71 13.68 13.68 0 0 0 3.5 13.12 13.43 13.43 0 0 0 8.21 3.87v12.78a6 6 0 0 0 -3.67 1.27 6 6 0 0 0 -11 .75 5.5 5.5 0 0 0 -3.34.9 6.13 6.13 0 0 0 -2.99 5.14v2a7 7 0 0 0 7 7h34a7 7 0 0 0 7-7v-.79a6.2 6.2 0 0 0 -5-6.21zm-28.82-21.13a11.65 11.65 0 0 1 -3.12-10.61 11.53 11.53 0 0 1 10.57 3.12c.28.29.82.72.94 1.1s-.36 1-.54 1.4a14.38 14.38 0 0 0 -.92 2.78l-6.11-6.15a1 1 0 0 0 -1.42 1.41l7.26 7.26c0 1 .22 2 .2 3a11.37 11.37 0 0 1 -6.86-3.31zm8.82 4.36a38.61 38.61 0 0 1 -.09-5.23 11.44 11.44 0 0 1 13.79-9.74 11.63 11.63 0 0 1 -3.12 10.61 11.45 11.45 0 0 1 -7.58 3.35 1 1 0 0 0 -1 1v15.28a6 6 0 0 0 -2-1.21zm23 23.77a5 5 0 0 1 -5 5h-34a5 5 0 0 1 -5-5v-2a4.14 4.14 0 0 1 2.08-3.42 3.47 3.47 0 0 1 2.79-.5 1 1 0 0 0 .77-.14 1 1 0 0 0 .43-.66 4 4 0 0 1 7.86 0 1 1 0 0 0 1.7.51c.64-.53 1-1.15 1.8-1.5a4 4 0 0 1 4.09.6c.53.44.77 1.18 1.28 1.58s1 .1 1.6-.15a4 4 0 0 1 2.6-.22c.73.2 1.92.64 2.05-.57a4 4 0 0 1 7.95.47c0 .7.07 1.45 1 1.44a8.42 8.42 0 0 0 1.33-.44 4.11 4.11 0 0 1 1.31 0 4.19 4.19 0 0 1 3.36 4.19z"/><path d="m26.71 13.25a1 1 0 0 0 .71-.3l7-7a1 1 0 0 0 0-1.41 1 1 0 0 0 -1.41 0l-7 7a1 1 0 0 0 .7 1.71z"/></g>
  </symbol>
  <symbol id="like" viewBox="0 0 60 60">
    <g id="027---Like"><path id="Shape" d="m53 0h-46c-3.86416566.00440864-6.99559136 3.13583434-7 7v34c.00440864 3.8641657 3.13583434 6.9955914 7 7h13c.3147573 0 .6111456.1481942.8.4l8.4 11.2c.1888544.2518058.4852427.4.8.4s.6111456-.1481942.8-.4l8.4-11.2c.1888544-.2518058.4852427-.4.8-.4h13c3.8641657-.0044086 6.9955914-3.1358343 7-7v-34c-.0044086-3.86416566-3.1358343-6.99559136-7-7zm5 41c-.0033061 2.7600532-2.2399468 4.9966939-5 5h-13c-.9439012.0015673-1.8324054.4458194-2.4 1.2l-7.6 10.133-7.6-10.133c-.5680045-.7536884-1.4562466-1.1978094-2.4-1.2h-13c-2.76005315-.0033061-4.99669388-2.2399468-5-5v-34c.00330612-2.76005315 2.23994685-4.99669388 5-5h46c2.7600532.00330612 4.9966939 2.23994685 5 5z"/><path id="Shape" d="m37 11c-2.8072788.0484229-5.4167302 1.45529-7 3.774-1.5832698-2.31871-4.1927212-3.7255771-7-3.774-4.561 0-8 3.93-8 9.142 0 5.61 4.255 9.458 10.7 15.283 1.14 1.03 2.352 2.126 3.624 3.308.3838363.3569554.9781637.3569554 1.362 0 1.272-1.182 2.484-2.278 3.624-3.308 6.435-5.825 10.69-9.673 10.69-15.283 0-5.212-3.439-9.142-8-9.142zm-4.037 22.941c-.941.851-1.931 1.746-2.963 2.7-1.032-.951-2.022-1.846-2.963-2.7-6.044-5.465-10.037-9.077-10.037-13.799 0-4.072 2.579-7.142 6-7.142 4.127 0 6.011 3.926 6.093 4.1.1636753.3536117.5178452.5799479.9075.5799479s.7438247-.2263362.9075-.5799479c.02-.043 1.932-4.1 6.092-4.1 3.421 0 6 3.07 6 7.142 0 4.722-3.993 8.334-10.037 13.799z"/><path id="Shape" d="m5 7c-.55228475 0-1 .44771525-1 1v3c0 .5522847.44771525 1 1 1s1-.4477153 1-1v-3c0-.55228475-.44771525-1-1-1z"/><path id="Shape" d="m5 14c-.55228475 0-1 .4477153-1 1v26c0 .5522847.44771525 1 1 1s1-.4477153 1-1v-26c0-.5522847-.44771525-1-1-1z"/></g></g>
  </symbol>
  <symbol id="people" viewBox="0 0 128 128">
    <path d="M118.982,67.458l-10.095-5.112a9.672,9.672,0,0,0,5.031-8.478V45.936a13.411,13.411,0,1,0-26.821,0v7.932a9.672,9.672,0,0,0,5.031,8.478L82.034,67.457c-.457.231-.912.5-1.364.79l-6.96-3.524a12.043,12.043,0,0,0,7.186-11v-10.3a16.9,16.9,0,1,0-33.793,0v10.3a12.045,12.045,0,0,0,7.186,11L47.33,68.247c-.452-.288-.907-.558-1.363-.789L35.872,62.346A9.672,9.672,0,0,0,40.9,53.868V45.936a13.411,13.411,0,1,0-26.821,0v7.932a9.672,9.672,0,0,0,5.031,8.478L9.018,67.458A16.37,16.37,0,0,0,0,82.133v7.158a1.75,1.75,0,0,0,1.75,1.75H28.813V99.73a1.751,1.751,0,0,0,1.75,1.75H97.436a1.75,1.75,0,0,0,1.75-1.75V91.041H126.25a1.75,1.75,0,0,0,1.75-1.75V82.133A16.37,16.37,0,0,0,118.982,67.458ZM90.6,45.936a9.911,9.911,0,1,1,19.821,0v7.932a6.172,6.172,0,0,1-6.165,6.165H96.762A6.172,6.172,0,0,1,90.6,53.868ZM50.6,53.719v-10.3a13.4,13.4,0,1,1,26.793,0v10.3a8.541,8.541,0,0,1-8.531,8.531h-9.73A8.542,8.542,0,0,1,50.6,53.719ZM17.582,45.936a9.911,9.911,0,1,1,19.821,0v7.932a6.172,6.172,0,0,1-6.165,6.165H23.747a6.172,6.172,0,0,1-6.165-6.165ZM3.5,82.133A12.888,12.888,0,0,1,10.6,70.58l13.916-7.047H30.47l13.084,6.626L40.24,71.837a20.733,20.733,0,0,0-11.228,15.7H3.5ZM95.686,97.98H32.313V90.433c0-.381.016-.759.04-1.134v-.012a17.253,17.253,0,0,1,9.469-14.328L60.008,65.75h7.984l18.186,9.209a17.253,17.253,0,0,1,9.469,14.328V89.3c.024.375.039.753.039,1.134ZM124.5,87.541H98.988a20.733,20.733,0,0,0-11.228-15.7l-3.314-1.678L97.53,63.533h5.954L117.4,70.58a12.888,12.888,0,0,1,7.1,11.553Z"/>
  </symbol>
</svg>